# xmcd
#
# Track frame offsets:
#	151
#	18592
#	27600
#	42053
#	55841
#	67348
#	80605
#	96435
#	109662
#	126379
#	153745
#	169468
#	176686
#	195066
#	206545
#	221788
#	237477
#	248339
#	269296
#	283994
#	291191
#	301679
#	314763
#
# Disc length: 4403 seconds
#
# Revision: 0
# Processed by: cddbd v1.4PL0 Copyright (c) Steve Scherf et al.
# Submitted via: EasyCDDAExtractor 4.6.9.1
#
DISCID=62113117
DTITLE=Tom Waits - Alice (The Original Demos)
DYEAR=1992
DGENRE=Blues
TTITLE0=There's Only Alice
TTITLE1=And No One Knows I'm Gone
TTITLE2=Tabletop Joe
TTITLE3=Komme Nie Zu Spat
TTITLE4=Hang Me In The Bottle
TTITLE5=Down In The Reeperbahn
TTITLE6=One, Two, And Through
TTITLE7=Everything You Can Thnk Of Is True
TTITLE8=But There's Never A Rose
TTITLE9=What Became Of Old Father Craft
TTITLE10=Chained Together For Life
TTITLE11=Falling Down The Lane
TTITLE12=Untitled Instrumental Piece #1
TTITLE13=Untitled Instrumental Piece #2
TTITLE14=Untitled Instrumental Piece #3
TTITLE15=Untitled Instrumental Piece #4
TTITLE16=Untitled Instrumental Piece #5
TTITLE17=Untitled Instrumental Piece #6
TTITLE18=Untitled Instrumental Piece #7
TTITLE19=Untitled Instrumental Piece #8
TTITLE20=Untitled Instrumental Piece #9
TTITLE21=Untitled Instrumental Piece #10
TTITLE22=Untitled Instrumental Piece #11
EXTD=
EXTT0=
EXTT1=
EXTT2=
EXTT3=
EXTT4=
EXTT5=
EXTT6=
EXTT7=
EXTT8=
EXTT9=
EXTT10=
EXTT11=
EXTT12=
EXTT13=
EXTT14=
EXTT15=
EXTT16=
EXTT17=
EXTT18=
EXTT19=
EXTT20=
EXTT21=
EXTT22=
PLAYORDER=
